<svg width="24" height="24" viewBox="0 0 24 24" fill="none" xmlns="http://www.w3.org/2000/svg">
<path d="M12 0.23999C5.53199 0.23999 0.23999 5.53199 0.23999 12C0.23999 18.468 5.53199 23.76 12 23.76C18.468 23.76 23.76 18.468 23.76 12C23.76 5.53199 18.468 0.23999 12 0.23999ZM20.1144 7.29599H16.704C16.3512 5.76719 15.7632 4.47359 15.0576 3.06239C17.1744 3.88559 19.056 5.29679 20.1144 7.29599ZM12 2.59199C12.9408 4.00319 13.764 5.53199 14.2344 7.29599H9.76559C10.236 5.64959 11.0592 4.00319 12 2.59199ZM2.94479 14.352C2.70959 13.6464 2.59199 12.8232 2.59199 12C2.59199 11.1768 2.70959 10.3536 2.94479 9.64799H6.94319C6.82559 10.4712 6.82559 11.1768 6.82559 12C6.82559 12.8232 6.94319 13.5288 6.94319 14.352H2.94479ZM3.88559 16.704H7.29599C7.64879 18.2328 8.23679 19.5264 8.94239 20.9376C6.82559 20.1144 4.94399 18.7032 3.88559 16.704ZM7.29599 7.29599H3.88559C5.06159 5.29679 6.82559 3.88559 8.94239 3.06239C8.23679 4.47359 7.64879 5.76719 7.29599 7.29599ZM12 21.408C11.0592 19.9968 10.236 18.468 9.76559 16.704H14.2344C13.764 18.3504 12.9408 19.9968 12 21.408ZM14.7048 14.352H9.29519C9.17759 13.5288 9.05999 12.8232 9.05999 12C9.05999 11.1768 9.17759 10.4712 9.29519 9.64799H14.8224C14.94 10.4712 15.0576 11.1768 15.0576 12C15.0576 12.8232 14.8224 13.5288 14.7048 14.352ZM15.0576 20.9376C15.7632 19.644 16.3512 18.2328 16.704 16.704H20.1144C19.056 18.7032 17.1744 20.1144 15.0576 20.9376ZM17.1744 14.352C17.292 13.5288 17.292 12.8232 17.292 12C17.292 11.1768 17.1744 10.4712 17.1744 9.64799H21.1728C21.408 10.3536 21.5256 11.1768 21.5256 12C21.5256 12.8232 21.408 13.6464 21.1728 14.352H17.1744Z" fill="#05442F"/>
</svg>
