<svg width="35" height="35" viewBox="0 0 35 35" fill="none" xmlns="http://www.w3.org/2000/svg">
<circle cx="17.5" cy="17.5" r="17.5" fill="#2C2C2C"/>
<path d="M18.9998 13.05V10C18.9998 9.73478 19.1052 9.48043 19.2927 9.29289C19.4802 9.10536 19.7346 9 19.9998 9C20.2621 9.0011 20.5135 9.10526 20.6998 9.29L27.6998 16.29C27.7935 16.383 27.8679 16.4936 27.9187 16.6154C27.9695 16.7373 27.9956 16.868 27.9956 17C27.9956 17.132 27.9695 17.2627 27.9187 17.3846C27.8679 17.5064 27.7935 17.617 27.6998 17.71L20.6998 24.71C20.5594 24.8476 20.3816 24.9408 20.1886 24.9779C19.9955 25.015 19.7958 24.9944 19.6144 24.9186C19.433 24.8429 19.278 24.7153 19.1687 24.5519C19.0594 24.3886 19.0006 24.1966 18.9998 24V20.9H18.1498C16.5699 20.8764 15.0038 21.197 13.5601 21.8393C12.1165 22.4817 10.83 23.4306 9.78981 24.62C9.66446 24.7869 9.49003 24.9104 9.29097 24.9731C9.09192 25.0359 8.87821 25.0348 8.67981 24.97C8.4779 24.9019 8.30304 24.771 8.18072 24.5965C8.0584 24.422 7.99501 24.213 7.99981 24C7.99981 14.88 16.0798 13.32 18.9998 13.05ZM18.1498 18.88C18.8187 18.8779 19.4869 18.9213 20.1498 19.01C20.3865 19.0459 20.6025 19.1656 20.7585 19.3473C20.9145 19.5289 21.0001 19.7606 20.9998 20V21.59L25.5798 17L20.9998 12.41V14C20.9998 14.2652 20.8945 14.5196 20.7069 14.7071C20.5194 14.8946 20.265 15 19.9998 15C19.0898 15 11.8898 15.2 10.3298 21.43C12.5941 19.7606 15.3366 18.8663 18.1498 18.88Z" fill="white"/>
</svg>
